<?xml version="1.0" encoding="utf-8"?><!DOCTYPE svg PUBLIC "-//W3C//DTD SVG 1.1//EN" "http://www.w3.org/Graphics/SVG/1.1/DTD/svg11.dtd"><svg version="1.1" id="Contours" xmlns="http://www.w3.org/2000/svg" xmlns:xlink="http://www.w3.org/1999/xlink" x="0px" y="0px" width="213.109451px" height="213.109451px" viewBox="0.000000 -0.000000 213.109451 334.805542" enable-background="new 0 0 213.109451 213.109451" xml:space="preserve" stroke="black" fill="none" stroke-linecap='round' stroke-linejoin='round'><path class="selected"  fill="#000000" opacity="1.000000" stroke="none" 
 	d="
M96.614166 334.693168 C88.504730 335.575156 82.589340 331.099479 76.634811 327.098838 C71.321503 323.529075 67.443169 318.764640 65.605812 312.294700 C63.255753 304.019401 69.473808 292.644096 77.752228 290.931724 C78.964348 290.680961 80.167076 290.340598 81.335884 289.932151 C86.643661 288.077506 87.746094 284.554862 83.910004 280.584098 C79.763512 276.292014 82.615974 271.451377 83.282700 267.411887 C84.341736 260.995383 87.167595 254.750846 89.977402 248.777579 C92.640839 243.115485 92.077667 237.599586 90.787834 231.987403 C90.230255 229.561332 88.356720 229.023872 86.419838 230.909782 C80.408218 236.763206 72.279030 238.588203 65.072922 242.158408 C63.852783 242.762931 62.271172 242.589469 60.908897 242.965186 C57.776894 243.829047 54.089943 244.045188 51.681015 245.895103 C45.861130 250.364555 39.405251 249.972190 32.807343 249.977714 C27.024574 249.982566 21.097103 248.407218 15.877972 253.124229 C13.800739 255.001640 10.033493 255.415397 8.531582 251.134177 C8.144859 250.031821 7.541985 248.081748 7.040661 248.082481 C0.188057 248.092368 2.655151 241.365211 0.095253 238.305061 C-0.471466 237.627570 1.650105 234.871162 2.260097 232.983527 C2.716579 231.570960 3.389954 229.634788 2.795792 228.612022 C1.845211 226.975745 -0.162197 225.658500 1.926533 223.875358 C3.477718 222.551109 5.598541 221.128516 7.468796 221.124229 C10.231003 221.117866 12.216671 222.365440 13.518642 218.119773 C14.939705 213.485755 23.663654 213.381965 26.619904 218.210990 C28.406281 221.129035 29.909996 224.243644 31.909668 227.002509 C35.538452 232.009025 34.046226 237.378837 33.650261 242.755866 C33.575333 243.773261 34.618942 245.751578 35.272034 245.807029 C41.279533 246.317008 47.168510 246.148215 51.917145 241.454993 C53.979881 239.416328 56.055168 238.395194 59.551224 239.636481 C61.787018 240.430305 65.322281 238.706657 67.845062 237.326072 C74.276428 233.806525 82.169968 232.593162 86.609619 225.783286 C86.898689 225.339896 88.403145 225.045112 88.547455 225.247611 C90.731354 228.311942 93.911774 231.229957 94.643112 234.655296 C96.510422 243.401130 92.836578 251.433158 89.909973 259.545829 C88.017456 264.791953 87.081909 270.397117 85.902893 275.881248 C85.286240 278.749534 86.555565 280.274100 89.672142 279.949516 C102.616119 278.601157 115.568344 277.329368 128.504913 275.913963 C132.914825 275.431480 137.417923 275.060966 141.647446 273.839439 C148.301300 271.917747 154.698532 269.118888 161.327957 267.096275 C164.359421 266.171378 164.273376 264.287711 163.604080 262.258353 C162.012726 257.433219 160.113495 252.710105 158.371063 247.933952 C158.052887 247.061820 157.651764 246.123618 157.689972 245.233115 C157.989761 238.247718 153.571884 232.939429 151.368118 226.842017 C148.611145 219.213950 153.862671 213.319846 161.568527 214.925590 C162.207352 215.058707 163.089478 215.215659 163.535675 214.902091 C169.735672 210.545081 175.045059 216.080787 180.791870 216.564765 C185.325287 216.946540 185.738800 217.013206 184.964264 212.251990 C184.677826 210.491203 184.923447 208.016975 185.988724 206.791755 C188.314392 204.116889 188.096115 201.865180 186.582260 199.034354 C186.003830 197.952750 186.359131 196.371802 186.288910 195.018424 C187.211334 195.890678 188.111588 196.787849 189.060013 197.630836 C193.064209 201.189780 189.761322 204.600593 188.861710 208.055274 C186.928482 215.479301 191.074097 219.759681 197.190506 218.905036 C198.381897 218.738547 200.369598 218.226203 200.472565 217.616935 C200.666336 216.470374 199.866684 215.080085 199.268204 213.898414 C198.748871 212.873008 197.936813 211.995872 197.254120 211.053214 C198.600616 210.683189 199.935669 210.260017 201.298660 209.966605 C201.935684 209.829475 202.633560 209.881705 203.291962 209.954902 C205.152649 210.161781 207.007202 210.423850 208.864166 210.664207 C207.340897 211.447135 205.688370 212.060828 204.348602 213.084037 C203.673523 213.599586 203.147293 214.918433 203.270523 215.770377 C203.975327 220.643302 200.751404 223.686240 195.932480 222.510596 C195.176514 222.326179 194.264740 222.342582 193.691895 221.911475 C185.782791 215.959266 175.372360 221.136512 167.315094 215.943168 C164.557037 218.591193 161.085495 216.648429 158.198517 217.360648 C153.088943 218.621238 152.728653 224.950706 156.054733 229.328330 C159.258942 233.545585 160.087219 238.010062 160.989014 242.870505 C161.798294 247.232291 163.659866 251.400108 165.079895 255.645896 C165.274033 256.226401 165.670700 256.740684 165.853485 257.323295 C168.604919 266.094291 168.600189 266.095817 177.873932 266.943198 C182.379196 267.354850 190.150757 275.506675 190.869614 280.513724 C192.618668 292.696616 189.496002 303.702964 182.850616 313.857505 C182.353378 314.617301 181.786560 315.652854 181.043640 315.880729 C173.936142 318.060996 167.037079 321.841483 159.191162 318.816459 C157.030350 317.983390 154.693512 317.619132 152.471222 316.930717 C147.048828 315.251090 142.088959 307.617332 142.955719 302.170737 C142.997620 301.907432 144.793579 301.469413 145.064606 301.764060 C149.538254 306.628013 153.915543 306.309867 158.608963 302.017051 C159.471664 301.227988 161.531006 300.755698 162.498581 301.232291 C169.242020 304.553794 176.072739 302.540244 182.876831 301.905418 C183.754395 301.823539 184.891388 301.460441 185.372055 300.823203 C186.377014 299.490867 187.024094 297.888572 187.818146 296.397147 C186.249298 296.330009 184.496780 295.771781 183.142487 296.278281 C176.226135 298.865195 169.493210 298.789848 162.526672 296.303001 C160.734390 295.663230 158.094040 296.358237 156.203186 297.225089 C149.774368 300.172355 146.847000 299.553550 142.845322 293.870048 C142.328003 293.135307 141.554443 292.581046 140.899582 291.943168 C140.493896 292.837058 139.933121 293.694266 139.711365 294.631675 C139.026184 297.528068 138.377548 300.439414 137.884506 303.373527 C137.002106 308.624595 133.905273 312.165855 129.500839 314.827415 C126.691376 316.525138 123.842468 318.193931 121.217270 320.151908 C116.998306 323.298576 113.637939 323.780418 110.323639 319.647391 C105.546326 313.689902 99.693741 311.164695 92.401100 309.656852 C87.036781 308.547660 84.890320 302.776694 82.906548 297.923209 C81.029266 293.330283 77.948410 292.551566 74.267494 296.039848 C68.536713 301.470725 67.489372 310.449882 71.870117 317.051200 C76.695229 324.322013 84.196083 328.933250 91.980141 330.418693 C97.836975 331.536399 104.600616 327.849479 110.974411 326.360374 C112.095886 326.098380 113.285446 326.127769 114.443573 326.022575 C113.899200 327.180717 113.618729 329.070060 112.767258 329.377372 C107.537949 331.264762 102.179581 332.794425 96.614166 334.693168 M16.864166 223.443168 C17.372601 225.883247 15.966457 226.275962 14.076832 225.920829 C12.398716 225.605430 10.774479 224.887489 9.092663 224.744361 C7.747429 224.629890 6.351425 225.112037 4.977947 225.329383 C5.726772 226.487403 6.207130 228.163932 7.270477 228.714484 C12.108994 231.219642 11.589344 232.733894 6.647617 233.991065 C5.943966 234.170081 5.327126 234.927467 4.807384 235.534690 C4.091194 236.371406 3.505669 237.319953 2.864166 238.220603 C3.887306 238.461463 4.907341 238.716590 5.934296 238.939902 C7.583275 239.298453 10.412449 238.967124 7.514381 241.846580 C7.139317 242.219245 7.127499 242.957511 6.947418 243.526420 C7.516331 243.568671 8.089035 243.674293 8.653404 243.640540 C10.009014 243.559501 11.360722 243.413062 12.714012 243.293006 C12.107319 244.666465 11.127789 246.009391 11.011940 247.423087 C10.919312 248.553397 11.727348 249.880302 12.462940 250.878867 C12.676010 251.168143 14.602787 250.840079 14.753101 250.430961 C16.294456 246.235526 19.924324 246.421348 23.370003 245.868308 C25.143429 245.583701 27.370235 244.990379 28.394829 243.727424 C32.390846 238.801765 31.623337 232.494712 27.288528 227.744666 C25.766132 226.076438 24.347157 223.826911 24.027760 221.672782 C23.641159 219.065391 23.087811 217.898215 20.241753 217.870353 C16.664734 217.835334 16.770187 220.027961 16.864166 223.443168 M186.864166 282.443168 C189.486343 278.221732 186.146652 279.039115 183.902054 278.944389 C175.763885 278.600974 167.364563 281.469627 159.560455 276.955741 C159.069321 276.671653 158.473816 276.568046 157.926849 276.380485 C158.398102 275.909232 158.830597 275.088645 159.347778 275.031303 C160.991257 274.848930 162.670624 274.869865 164.328354 274.958030 C169.857132 275.252158 175.380432 275.658225 180.911179 275.897636 C181.882278 275.939689 182.879181 275.385337 183.864166 275.106406 C183.126068 274.385337 182.482590 273.518851 181.634460 272.966911 C176.365387 269.537772 170.471344 268.787803 164.727982 270.761008 C159.370529 272.601646 154.407822 275.586112 149.258392 278.039878 C146.930511 279.149100 144.630356 280.700248 146.058823 283.457603 C147.470261 286.182029 150.107834 286.873099 153.137283 285.218833 C157.009628 283.104240 160.591141 283.378745 164.108719 286.468406 C165.112701 287.350303 167.398071 287.120628 169.017715 286.878318 C171.941483 286.440910 174.806335 285.609824 177.695801 284.943168 C180.585251 284.276481 183.474716 283.609824 186.864166 282.443168 M149.364166 295.943168 C151.280273 295.360374 153.227219 294.861350 155.103409 294.170219 C156.826706 293.535422 159.343552 291.590903 160.014770 292.120261 C164.742676 295.849113 169.802994 294.766837 174.927628 293.941764 C179.023453 293.282279 183.150726 292.753898 187.182053 291.815299 C187.940796 291.638663 188.703125 289.806022 188.709930 288.732749 C188.713654 288.141349 187.056366 286.928001 186.305618 287.041160 C180.883606 287.858421 175.393784 288.566734 170.145203 290.074577 C166.606293 291.091239 163.704178 291.334251 161.038513 288.604728 C158.681839 286.191611 156.534958 286.264152 153.781128 288.304557 C152.516708 289.241416 150.240829 288.838035 148.419266 288.990104 C146.976273 289.110557 145.526611 289.151267 144.079910 289.227439 C144.638199 290.596213 144.975128 292.127586 145.823746 293.283164 C146.522339 294.234397 147.827713 294.740043 149.364166 295.943168 M156.864166 307.443168 C155.243790 307.943168 153.633255 308.478751 151.999466 308.930289 C150.972397 309.214072 149.910461 309.371787 148.864166 309.586051 C149.728516 310.705100 150.406815 312.491111 151.498352 312.795554 C153.400177 313.325980 155.560944 312.858085 157.605621 312.959953 C162.718430 313.214591 167.402573 308.760856 172.841858 311.890006 C177.303665 314.456779 180.762497 312.188987 183.558823 308.673179 C184.106049 307.985160 184.112030 306.866630 184.367661 305.946647 C183.447708 305.864280 182.526932 305.703147 181.607925 305.712547 C176.268814 305.767203 170.809219 306.569480 165.635284 305.685477 C162.380585 305.129417 159.932098 305.174796 156.864166 307.443168 M120.864166 292.443168 C121.197494 290.927970 121.606735 289.424003 121.833984 287.893058 C121.958328 287.055442 121.775024 286.172172 121.730453 285.309470 C121.108368 285.799583 120.323471 286.176444 119.890900 286.798362 C117.310104 290.508659 114.665115 294.188377 112.345245 298.060264 C111.186111 299.994865 110.565659 302.285209 109.939484 304.482444 C109.786667 305.018729 110.457230 305.945029 110.987930 306.431724 C111.160675 306.590141 112.341583 306.077659 112.637787 305.606010 C115.267319 301.419028 117.801697 297.172263 120.864166 292.443168 M95.864166 291.443168 C95.161942 293.478721 94.424133 295.503165 93.781609 297.557395 C93.613495 298.094871 93.529617 299.095481 93.776672 299.236716 C94.322723 299.548759 95.350861 299.765495 95.742310 299.459037 C96.897705 298.554496 98.091370 297.523185 98.815414 296.277274 C100.750092 292.948203 102.504456 289.508567 104.171677 286.036552 C104.399902 285.561271 103.815674 284.092429 103.451538 284.032584 C100.784943 283.594047 98.731995 284.356834 97.814255 287.267661 C97.451935 288.416892 96.530838 289.389915 95.864166 291.443168 M106.864166 297.443168 C107.066010 295.978355 107.267868 294.513511 107.469711 293.048698 C106.532166 293.915885 105.508301 294.708549 104.679001 295.669181 C103.651215 296.859702 102.742249 298.160667 101.857635 299.465202 C100.262482 301.817680 99.149536 304.782493 95.331909 303.991111 C94.912933 303.904227 94.356735 304.479209 93.864166 304.747214 C94.226105 305.145866 94.524734 305.640128 94.959854 305.928214 C98.785583 308.461173 102.331375 307.183067 103.898132 302.886527 C104.524963 301.167564 105.530823 299.586814 106.864166 297.443168 M127.364166 308.943168 C129.115616 307.191734 131.201660 305.657401 132.520218 303.625083 C133.731338 301.758353 134.151718 299.366233 134.825287 297.176322 C134.926529 296.847160 134.508224 296.358207 134.330246 295.943168 C133.841553 296.212638 133.194229 296.363242 132.889236 296.770316 C130.442963 300.035300 127.977036 303.293998 125.757629 306.710838 C125.451004 307.182853 126.462753 308.511253 127.364166 308.943168 M92.864166 290.443168 C93.802574 289.504752 95.110535 288.716087 95.569550 287.583396 C95.981644 286.566489 95.460602 285.171409 95.351212 283.943168 C94.433731 284.531638 93.290939 284.938255 92.641434 285.742973 C90.763535 288.069694 88.833382 290.423942 87.447563 293.044425 C86.876175 294.124870 87.641785 295.912376 87.799278 297.378287 C88.820908 296.685020 90.156914 296.199424 90.786011 295.246940 C91.605492 294.006156 91.864159 292.394950 92.864166 290.443168 M163.864166 314.443168 C165.501053 317.673240 168.158432 317.419456 170.879242 316.305289 C171.303680 316.131492 171.253479 314.798637 171.422745 314.001792 C169.234711 313.982261 167.046661 313.962638 164.858627 313.943351 C164.693817 313.941886 164.528992 313.943168 163.864166 314.443168 M116.864166 312.443168 C118.262070 311.045280 119.715652 309.695945 121.012238 308.209678 C121.281357 307.901176 120.968033 307.084586 120.923096 306.502128 C119.311081 307.408164 117.442642 308.063193 116.200958 309.331748 C115.625809 309.919364 116.271790 311.702201 116.864166 312.443168 M130.364166 289.943168 C129.197494 290.753562 127.865219 291.417808 126.952332 292.452171 C126.624512 292.823600 127.307190 294.086906 127.528687 294.943168 C128.307175 293.958518 129.100250 292.984916 129.857895 291.984489 C130.227417 291.496574 130.530838 290.958518 130.364166 289.943168 M113.864182 284.443198 C113.218338 284.797355 112.572510 285.151511 111.926666 285.505668 C112.384994 285.964011 112.843323 286.422355 113.301651 286.880668 C113.655823 286.234824 114.009994 285.589011 113.864182 284.443198 z"/><path class="selected"  fill="#000000" opacity="1.000000" stroke="none" 
 	d="
M62.614166 50.193168 C67.673599 54.919265 72.125603 59.882072 77.385468 63.744796 C83.569916 68.286513 91.546402 67.309943 98.703156 68.836906 C105.681076 70.325729 112.819275 71.285346 119.936462 71.818549 C124.412735 72.153899 129.051346 71.669585 133.491516 70.862182 C143.039459 69.125961 152.507797 66.950683 162.003082 64.928649 C162.748123 64.769996 163.811127 64.608947 164.099533 64.096343 C164.817337 62.820502 165.173065 61.340934 165.674179 59.943168 C166.448090 61.153754 167.222000 62.364333 167.995911 63.574912 C168.618652 63.107513 169.798096 62.609168 169.774109 62.177734 C169.614502 59.307586 170.223312 55.565726 168.665848 53.762527 C164.509720 48.950610 165.255707 42.802818 162.956345 37.545020 C157.401703 24.843566 148.520386 15.502755 135.903275 10.009008 C123.025177 4.401630 109.281692 2.838301 95.454803 4.126565 C87.588181 4.859506 79.861610 7.314655 72.152473 9.305942 C70.847084 9.643125 70.086479 11.737096 68.832924 12.707910 C66.832634 14.257037 64.631721 15.547509 62.512459 16.942523 C59.518517 18.913304 56.960731 21.720504 53.170547 17.291907 C52.193451 16.150222 47.317993 17.467439 44.751381 18.718177 C34.590340 23.669753 29.146358 32.860114 24.959724 42.746497 C22.380680 48.836692 20.396797 55.238784 18.802608 61.663833 C17.839680 65.544692 17.666389 69.771484 17.956577 73.783652 C18.675114 83.718200 19.931156 93.612792 20.810291 103.537688 C20.996662 105.641677 20.497074 107.806419 20.313522 109.943168 C19.497070 107.801330 18.280632 105.720702 17.941700 103.505790 C17.046127 97.653228 16.403248 91.753356 15.900219 85.851821 C15.402016 80.006805 15.296551 74.129005 14.838634 68.279685 C14.288990 61.258697 15.895679 54.700591 18.885998 48.455241 C23.184113 39.478526 25.659657 29.431037 33.706879 22.612231 C39.738197 17.501605 45.978622 12.861844 54.602699 13.934329 C58.888374 14.467292 62.088943 12.397973 65.486435 9.988397 C72.401688 5.083942 80.378113 2.224973 88.709602 1.023642 C106.771072 -1.580670 124.349426 0.728568 140.838364 8.591935 C149.783447 12.857736 156.893204 19.663554 161.849777 28.436710 C167.899124 39.144130 172.330658 50.364467 172.901550 62.853339 C173.034164 65.754485 172.042053 66.495208 169.108749 67.097900 C160.595551 68.847060 152.340057 72.246680 143.777863 73.257972 C133.742676 74.443244 123.473740 74.219787 113.338745 73.807449 C105.396057 73.484283 97.521988 71.457282 89.579826 71.145888 C85.541603 70.987540 81.414726 72.920676 77.342163 73.963905 C76.609955 74.151473 75.976570 74.791167 75.246811 74.909682 C72.919701 75.287597 70.569916 75.531715 68.221558 75.747909 C68.142715 75.755172 67.778709 74.578834 67.894905 74.505668 C69.862976 73.266288 71.843956 72.031539 73.914406 70.977050 C74.999863 70.424224 76.450882 70.464416 77.367645 69.757819 C77.824890 69.405418 77.733795 67.264472 77.413246 67.137435 C69.299774 63.922225 64.707306 56.604697 58.582161 51.099849 C57.806915 50.403106 57.043640 49.305122 56.944504 48.325278 C56.741966 46.323463 56.995216 44.275531 57.060738 42.246593 C57.995216 43.822871 58.864479 45.443057 59.886383 46.960464 C60.604744 48.027141 61.530830 48.953921 62.614166 50.193168 z"/><path class="selected"  fill="#000000" opacity="1.000000" stroke="none" 
 	d="
M162.114166 111.193168 C166.616074 102.929633 165.455200 94.929595 163.047256 86.597396 C161.965759 82.855109 162.776031 78.536483 162.967758 74.490737 C162.993820 73.940887 164.420425 73.457397 165.198547 72.943168 C165.420410 73.818381 166.070923 74.866805 165.798050 75.542083 C162.983170 82.507507 166.532669 89.001311 167.052643 95.711417 C167.367249 99.771331 167.477600 103.981834 166.766205 107.961379 C164.574936 120.219398 158.089798 130.550529 149.714478 139.261893 C142.550507 146.713325 133.542938 152.089271 123.766647 156.000632 C116.038193 159.092658 108.051880 158.961784 100.000046 158.983436 C97.393326 158.990440 94.135666 158.348136 97.206665 163.178870 C98.728958 165.573432 97.870804 169.576163 97.819702 172.847114 C97.776016 175.644096 97.994110 177.894218 101.208939 179.001182 C105.134888 180.352988 108.725006 184.764594 112.976334 179.432304 C114.127960 177.987861 115.843750 176.833823 117.530655 176.028129 C118.782440 175.430259 120.406128 175.611076 121.864166 175.445029 C121.039352 176.602546 120.405121 177.986259 119.352386 178.873298 C116.678192 181.126563 113.460999 182.830451 111.128098 185.367515 C108.702240 188.005683 106.872589 186.602561 104.868210 185.401084 C102.581177 184.030173 100.549149 182.180793 98.165115 181.045966 C96.865387 180.427283 95.063431 180.901862 93.493278 180.800880 C92.253593 180.721152 90.790100 180.892219 89.827522 180.299659 C85.948166 177.911491 82.142021 177.003928 77.850273 179.306220 C77.187454 179.661781 75.546379 178.980460 74.863800 178.283225 C74.226997 177.632758 74.264046 176.322623 74.004478 175.302848 C74.982780 175.516288 75.955475 175.763023 76.941757 175.928977 C77.427727 176.010749 78.067612 176.141410 78.419022 175.913108 C82.916473 172.991309 86.708275 174.780357 90.769234 177.201606 C94.016052 179.137427 94.394379 175.305839 94.689377 173.865546 C95.278763 170.987891 95.061386 167.888602 94.819473 164.909888 C94.424026 160.040763 90.453125 159.004050 86.694237 157.956840 C75.787598 154.918281 64.590057 152.668494 54.039673 148.694221 C46.716324 145.935554 44.322998 138.337211 42.880821 130.969505 C42.755203 130.327796 42.864197 129.640159 42.864159 128.973853 C42.863762 122.459418 42.642868 122.286506 36.436951 123.943183 C29.666496 125.750526 25.822472 123.739967 23.704864 117.283881 C22.629673 114.005859 25.842823 106.009689 29.413418 105.045219 C39.790543 102.242217 42.425804 93.337547 45.800377 85.086433 C48.772064 77.820403 51.150398 70.313140 53.928390 62.964439 C54.247749 62.119628 55.450684 61.608833 56.243935 60.943168 C56.450684 61.833511 56.980194 62.791129 56.810944 63.603103 C55.830276 68.307838 55.865044 73.022796 53.067978 77.574126 C48.326424 85.289504 45.064362 93.900161 40.716019 101.881492 C39.695816 103.754073 36.974541 105.320106 34.768364 105.801673 C29.628155 106.923682 27.503510 110.761489 25.993961 114.855903 C24.820683 118.038215 31.877495 122.051978 36.357445 120.943198 C44.657211 118.888969 44.952606 119.684486 46.049500 127.953101 C47.153870 136.277961 50.148712 143.955955 59.466614 147.117957 C72.277122 151.465171 85.089127 155.918113 98.783173 155.857902 C111.845352 155.800468 124.511719 153.854209 135.650009 145.987022 C148.085617 137.203529 157.825043 126.525626 162.114166 111.193168 z"/><path class="selected"  fill="#000000" opacity="1.000000" stroke="none" 
 	d="
M205.114166 187.693168 C207.932846 191.845191 210.865707 195.571967 212.873108 199.744056 C213.577957 201.208945 212.603271 204.360999 211.308182 205.651542 C210.113342 206.842185 207.468948 206.733619 205.446014 206.826270 C204.952927 206.848853 204.393234 205.417625 203.864166 204.654838 C204.557037 204.417625 205.235291 204.045509 205.945526 203.968513 C208.071808 203.738013 211.611969 204.594047 210.577805 201.077415 C210.040161 199.249198 206.589371 198.192069 204.335068 197.015540 C203.783768 196.727790 202.763153 197.339271 201.958298 197.537315 C202.248230 196.517951 202.458496 195.466849 202.848679 194.487434 C203.315384 193.315879 203.935852 192.205558 204.489716 191.068717 C202.785278 191.026862 201.064285 190.823096 199.381760 190.995353 C198.078903 191.128745 196.824219 191.732459 195.548096 192.127113 C196.033707 190.852195 196.499039 189.569007 197.014130 188.306113 C197.246368 187.736686 197.577759 187.207694 197.864166 186.660361 C197.173141 186.421302 196.327621 185.801658 195.817673 186.008659 C193.538315 186.933936 190.396271 187.517539 189.329834 189.287452 C186.878723 193.355384 183.699203 193.261390 179.962708 192.543204 C178.881531 192.335395 177.761887 191.858573 176.720337 191.988746 C169.301071 192.915946 162.796310 190.168449 155.943024 187.879142 C150.689728 186.124335 144.627228 186.790641 138.924347 186.384116 C137.454758 186.279365 135.984085 186.189582 134.513916 186.092918 C135.022324 184.818015 135.500702 183.530097 136.045868 182.271110 C136.962967 180.153129 137.855972 178.019691 138.901062 175.964973 C139.256195 175.266746 140.039780 174.786460 140.627579 174.206580 C140.981308 175.010581 141.738983 175.885825 141.612122 176.605048 C141.248840 178.664420 139.029388 181.652930 142.988327 181.810371 C151.097855 182.132850 152.136932 182.969993 151.925964 176.957038 C151.861221 175.111167 152.528778 173.239158 152.864532 171.379752 C153.914001 165.568046 152.820374 160.054481 151.049210 154.489356 C150.096893 151.497123 150.170593 148.165733 149.908325 144.976936 C149.854523 144.322868 150.366089 143.622306 150.617035 142.943168 C151.160645 143.571067 152.021408 144.121314 152.197205 144.839271 C153.496201 150.144279 155.306976 155.436530 155.690735 160.823005 C156.115906 166.791099 155.235306 172.857368 154.846527 178.875922 C154.679153 181.466834 154.966370 183.473945 157.909454 184.575614 C162.489044 186.289848 166.802124 188.536384 172.005447 188.045005 C174.642761 187.795951 177.372421 188.753104 180.074905 188.904304 C182.986450 189.067191 185.636368 189.146766 188.083008 186.420036 C193.344284 180.556495 193.628021 180.826438 199.783997 185.274680 C201.239655 186.326514 203.158417 186.737434 205.114166 187.693168 z"/><path class="selected"  fill="#000000" opacity="1.000000" stroke="none" 
 	d="
M142.114166 30.693168 C147.009628 32.588626 151.678024 34.174125 156.279205 35.935279 C157.099075 36.249091 157.640045 37.291526 158.309814 37.997512 C157.388199 38.039668 156.466827 38.090182 155.544739 38.115058 C155.404953 38.118831 155.262848 37.953250 155.120331 37.950763 C153.223541 37.917617 151.326508 37.899604 149.429520 37.877822 C150.347168 39.505706 151.215347 41.163970 152.192490 42.755317 C154.395935 46.343692 156.800125 49.819774 158.794632 53.518424 C159.355484 54.558486 158.777893 56.212455 158.722488 57.584846 C158.016495 56.784408 157.192444 56.059554 156.623734 55.171233 C153.005859 49.520145 149.794479 43.562205 145.708435 38.278167 C143.818481 35.834083 140.361633 34.479995 137.435883 32.981910 C129.479858 28.908160 120.797028 28.725074 112.125061 27.483703 C101.147537 25.912292 90.311661 26.497958 79.431305 25.873969 C78.546844 25.823245 77.718559 24.793174 76.864166 24.218177 C77.702080 23.793174 78.536690 23.006251 79.378418 22.998550 C88.923187 22.911250 98.495316 22.497070 108.007874 23.057307 C119.615479 23.740935 131.345825 24.491195 142.114166 30.693168 z"/><path class="selected"  fill="#000000" opacity="1.000000" stroke="none" 
 	d="
M39.864166 196.943168 C42.502213 197.414558 44.640266 197.885947 46.778320 198.357337 C44.692619 199.219276 42.618561 200.111137 40.516144 200.930183 C39.509987 201.322150 38.409370 201.481742 37.421097 201.907890 C30.316635 204.971366 24.677265 203.194862 20.986008 195.888190 C19.272442 192.496284 18.175957 188.476691 18.001049 184.686225 C17.578976 175.539146 17.604015 166.349952 17.937679 157.195563 C18.268242 148.126243 19.145679 139.074210 19.933048 130.027656 C20.026203 128.957374 21.064262 127.969337 21.664307 126.943168 C22.064259 127.974158 22.844353 129.019035 22.807327 130.034080 C22.221523 146.094016 21.353474 162.146003 20.980736 178.209815 C20.879272 182.582465 21.636345 187.180152 23.051636 191.314338 C24.080330 194.319236 26.619617 196.950950 28.945835 199.291419 C29.786190 200.136893 32.078773 200.062064 33.509087 199.673148 C35.556824 199.116386 37.421387 197.885947 39.864166 196.943168 z"/><path class="selected"  fill="#000000" opacity="1.000000" stroke="none" 
 	d="
M173.864166 103.943168 C170.405914 95.170394 169.531616 86.493278 169.908539 77.638648 C169.933197 77.059615 170.594803 76.507697 170.960129 75.943168 C171.261475 76.571670 171.733047 77.173141 171.837830 77.832862 C172.881271 84.402404 173.711380 91.010635 174.954437 97.540809 C175.342697 99.580489 176.797165 101.417953 177.767548 103.345985 C183.853149 115.437492 189.826157 127.479163 188.977493 141.698966 C188.627167 147.568824 189.632828 153.510581 189.803909 159.425925 C189.857330 161.273994 189.404434 163.213645 188.798996 164.979606 C188.310760 166.403678 187.244095 167.629432 186.434052 168.943168 C186.295074 167.392173 185.625671 165.648521 186.107208 164.322913 C188.427109 157.936332 187.044250 151.751365 185.968185 145.393470 C185.001358 139.681068 185.936111 133.492500 184.206299 128.099601 C181.591354 119.947120 177.390869 112.303207 173.864166 103.943168 z"/><path class="selected"  fill="#000000" opacity="1.000000" stroke="none" 
 	d="
M120.114166 169.693168 C119.665924 166.641410 118.278427 162.745444 119.583572 161.326926 C121.069504 159.711906 125.668427 161.246055 127.652954 159.744437 C131.570145 156.780433 132.473282 160.113013 134.203812 161.896369 C134.500183 162.201789 133.938553 163.244865 133.956726 163.942420 C133.974167 164.612571 134.011414 165.601737 134.423950 165.878608 C135.425888 166.551047 136.650909 166.891090 137.786041 167.365043 C136.724564 167.891090 135.530273 168.254615 134.636047 168.985328 C133.576996 169.850700 132.180572 170.924338 131.967606 172.096198 C131.057953 177.101737 130.621155 182.191627 129.795380 187.215171 C129.608429 188.352332 128.790649 189.667777 127.859711 190.352485 C123.522690 193.542380 122.704742 196.736015 124.950455 201.595832 C125.849075 203.540458 126.332520 205.698402 126.808960 207.803626 C126.953064 208.440269 126.439270 209.225822 126.226822 209.943168 C125.439270 209.439231 124.134888 209.078895 123.948456 208.407935 C122.781601 204.208411 121.884354 199.934684 120.855164 195.695869 C120.379822 193.738166 119.447311 191.810905 119.409363 189.856483 C119.384857 188.595390 120.354385 186.455741 121.312149 186.171577 C128.546097 184.025169 127.449921 177.551078 128.865112 172.377555 C129.192032 171.182410 129.688965 170.008369 129.826218 168.792854 C130.020721 167.070060 130.480072 164.056022 129.900574 163.814460 C128.155701 163.087150 125.876160 163.098640 124.002014 163.583305 C123.492508 163.715064 123.636185 166.535194 123.557816 168.125327 C123.480682 169.689979 123.502228 171.259483 123.480469 172.826865 C122.441696 171.865638 121.402924 170.904411 120.114166 169.693168 z"/><path class="selected"  fill="#000000" opacity="1.000000" stroke="none" 
 	d="
M133.614166 127.693168 C125.029724 129.943168 116.784561 132.641975 108.332550 133.721931 C101.578690 134.584922 94.249313 135.236167 87.969406 131.349128 C85.813530 130.014716 84.393494 127.345863 82.974739 125.075736 C82.648430 124.553611 83.711220 123.163337 84.134750 122.172584 C84.711227 122.613853 85.589760 122.935706 85.818512 123.514426 C88.883354 131.268012 96.185852 131.221061 102.101486 130.643653 C112.016067 129.675925 121.738327 126.779243 131.556458 124.767127 C137.869278 123.473396 140.235397 118.753577 141.887115 113.295936 C142.236877 112.140319 142.878876 111.073157 143.386230 109.965240 C143.878876 111.260558 144.825287 112.568717 144.789062 113.849075 C144.584518 121.078590 140.981796 125.428672 133.614166 127.693168 z"/><path class="selected"  fill="#000000" opacity="1.000000" stroke="none" 
 	d="
M93.614166 41.193168 C90.115402 39.943168 86.848450 38.996452 83.632889 37.899142 C82.973503 37.674121 82.506462 36.885440 81.950760 36.356574 C82.588104 35.885436 83.209976 35.040610 83.865700 35.013461 C85.807465 34.933074 87.913643 34.740867 89.689308 35.358157 C109.185715 42.135810 128.634369 49.050998 148.084915 55.960006 C149.529755 56.473228 150.955551 57.116820 152.264374 57.907981 C153.073181 58.396880 153.643677 59.280021 154.321152 59.986182 C153.184021 60.153716 151.903061 60.749557 150.931747 60.423339 C139.684067 56.645805 128.508728 52.652839 117.261093 48.875098 C109.505020 46.270065 101.666077 43.911742 93.614166 41.193168 z"/><path class="selected"  fill="#000000" opacity="1.000000" stroke="none" 
 	d="
M39.114166 176.693168 C35.294861 168.427283 31.191292 160.562141 31.856209 151.360130 C31.916069 150.531669 31.611336 149.576774 31.931053 148.893623 C32.293907 148.118323 33.169228 147.582877 33.821762 146.943168 C34.169235 147.692695 34.799446 148.433646 34.822418 149.193000 C35.281052 164.351340 41.340302 177.029060 52.055534 187.501456 C54.360474 189.754127 57.521889 191.121146 60.240356 192.967429 C60.825447 193.364799 61.201241 194.070319 61.673431 194.633903 C61.021408 195.070319 60.330795 195.918937 59.724930 195.862235 C58.196930 195.719215 56.337044 195.609351 55.263123 194.708121 C49.128380 189.559989 42.851349 184.480262 39.114166 176.693168 z"/><path class="selected"  fill="#000000" opacity="1.000000" stroke="none" 
 	d="
M167.864166 132.943168 C167.197479 130.226981 166.446350 128.030265 165.927673 125.779975 C165.808289 125.262061 166.486679 124.560310 166.797943 123.943168 C167.204971 124.494788 167.680084 125.008811 168.008636 125.603767 C171.848877 132.557761 174.783722 139.860908 175.829407 147.774802 C176.668076 154.122153 177.608810 160.503059 177.721725 166.882926 C177.798950 171.245963 176.739288 175.681861 175.728577 179.977119 C175.449890 181.161414 173.523773 181.958060 172.353577 182.932578 C172.495819 181.797401 172.533249 180.637336 172.796051 179.530784 C176.583603 163.582709 174.283157 148.294517 167.864166 132.943168 z"/><path class="selected"  fill="#000000" opacity="1.000000" stroke="none" 
 	d="
M37.614166 217.193168 C42.545921 218.673316 46.527618 217.785407 50.173233 214.311317 C51.876389 212.688300 54.440056 211.273276 56.724602 211.080894 C64.746735 210.405357 69.652084 205.580955 73.837357 199.479606 C74.383354 198.683646 75.006805 197.940818 75.594398 197.173392 C75.971420 198.309562 76.891136 199.587653 76.637161 200.558799 C75.017349 206.752586 64.179848 214.708320 57.487701 214.981788 C56.113495 215.037940 54.228134 215.128150 53.483940 215.987159 C49.220543 220.908454 43.910881 221.984946 37.845207 220.950263 C37.521957 220.895118 37.179459 220.964820 36.848724 220.939613 C34.861427 220.788108 32.874954 220.625861 30.888206 220.467200 C33.046860 219.292518 35.205513 218.117835 37.614166 217.193168 z"/><path class="selected"  fill="#000000" opacity="1.000000" stroke="none" 
 	d="
M55.114166 168.693168 C52.980453 165.559470 50.865669 162.791114 49.337463 159.729926 C48.797264 158.647864 49.688942 156.850974 49.926895 155.380439 C50.751068 156.246436 51.649300 157.053977 52.386848 157.988364 C55.947174 162.498740 59.214272 167.281745 63.161270 171.418601 C64.233101 172.541969 67.665077 172.508369 69.400124 171.695625 C74.300659 169.400077 78.859642 166.382987 83.610222 163.753226 C84.530098 163.244010 85.699486 163.059714 86.770195 162.994270 C87.452538 162.952567 88.165131 163.405814 88.864166 163.637122 C88.249931 164.186698 87.718933 164.901160 87.008354 165.259895 C81.088921 168.248206 74.744972 170.596061 69.315689 174.292472 C64.842453 177.337958 62.249031 175.577705 59.258835 172.820121 C57.913223 171.579185 56.659561 170.238563 55.114166 168.693168 z"/><path class="selected"  fill="#000000" opacity="1.000000" stroke="none" 
 	d="
M33.614166 57.693168 C35.197502 53.521880 36.435036 49.563033 37.945076 45.711017 C38.246773 44.941383 39.588341 44.579387 40.450432 44.029430 C40.494705 44.927646 40.784538 45.897903 40.545418 46.712978 C38.033592 55.275054 35.448257 63.815681 32.847855 72.351463 C32.573921 73.250648 32.073761 74.080924 31.678566 74.943168 C31.073769 73.598197 29.761284 72.116111 29.990555 70.932738 C30.839775 66.549537 32.197502 62.264861 33.614166 57.693168 z"/><path class="selected"  fill="#000000" opacity="1.000000" stroke="none" 
 	d="
M100.114166 198.693168 C102.391083 201.884772 103.387192 205.017722 101.782593 208.455360 C101.482468 209.098319 100.603577 209.524787 99.904037 209.876823 C99.781784 209.938361 98.829529 208.953544 98.921387 208.749625 C101.397949 203.252128 96.923859 200.118980 94.664642 196.300574 C92.863106 193.255698 93.751808 191.355445 96.876831 190.533195 C98.220276 190.179694 99.797867 190.716010 101.269073 190.848075 C101.076721 192.103828 100.914902 193.365241 100.683533 194.613761 C100.445786 195.896781 100.140106 197.167228 100.114166 198.693168 z"/><path class="selected"  fill="#000000" opacity="1.000000" stroke="none" 
 	d="
M79.864166 190.943168 C81.444336 191.529655 82.524506 192.116157 83.604675 192.702659 C81.431053 193.689384 78.788445 195.982200 77.176941 195.403526 C73.262871 193.998054 68.584656 192.597861 67.782730 187.318946 C67.575363 185.953895 67.741257 184.509086 67.913620 183.123054 C67.967186 182.692283 68.606804 182.334403 68.978127 181.943168 C69.273468 182.410392 69.727173 182.842414 69.840019 183.350196 C71.171371 189.340995 73.101234 190.898261 79.864166 190.943168 z"/><path class="selected"  fill="#000000" opacity="1.000000" stroke="none" 
 	d="
M105.114166 101.193168 C108.628143 97.600768 106.871613 95.619331 103.564697 93.895698 C102.837143 93.516479 102.422760 92.536407 101.864166 91.833022 C102.663193 91.536399 103.818710 90.746452 104.202805 91.024017 C106.521271 92.699493 109.707321 94.251235 110.526855 96.576240 C111.158630 98.368522 109.129745 101.540282 107.557831 103.523078 C106.375061 105.015006 104.818970 103.801925 105.114166 101.193168 z"/><path class="selected"  fill="#000000" opacity="1.000000" stroke="none" 
 	d="
M66.864166 99.943168 C67.564346 102.143340 68.272278 103.840385 68.960854 105.545242 C69.233284 106.219772 69.462662 106.911689 69.711655 107.595679 C68.812752 107.595100 67.737671 107.918235 67.043930 107.540687 C62.956779 105.316291 62.728516 94.087791 66.676529 91.675262 C67.018341 91.466392 67.763710 91.463340 68.021187 91.696479 C68.288864 91.938850 68.318245 92.608733 68.232651 93.049056 C67.816833 95.188277 67.327476 97.313186 66.864166 99.943168 z"/><path class="selected"  fill="#000000" opacity="1.000000" stroke="none" 
 	d="
M83.864166 90.943168 C86.430527 90.973281 89.234756 90.455550 88.723732 93.731925 C88.434998 95.583137 86.729576 97.213386 85.662292 98.943168 C84.157593 97.871177 81.886429 97.068748 81.385269 95.643813 C80.967476 94.455863 82.625511 92.537841 83.864166 90.943168 z"/><path class="selected"  fill="#000000" opacity="1.000000" stroke="none" 
 	d="
M122.864166 91.943168 C123.155655 86.867690 125.419846 84.641593 127.908112 86.586845 C129.633453 87.935653 132.118896 89.511565 129.841934 92.286857 C127.661407 94.944610 125.242416 94.674750 122.864166 91.943168 z"/><path class="selected"  fill="#000000" opacity="1.000000" stroke="none" 
 	d="
M142.614166 95.693168 C142.035934 92.271407 141.683228 88.601340 141.428223 84.924506 C141.408875 84.645499 142.082932 84.318412 142.434662 84.013663 C142.911163 84.811156 143.824081 85.629539 143.787079 86.402450 C143.642471 89.423827 143.197510 92.430831 142.614166 95.693168 z"/></svg>